<svg width="592" height="592" viewBox="0 0 592 592" fill="none" xmlns="http://www.w3.org/2000/svg">
<path d="M592 452.761H0V453.057H592V452.761Z" fill="#EBEBEB"/>
<path d="M508.777 460.824H393.218V461.12H508.777V460.824Z" fill="#EBEBEB"/>
<path d="M397.433 467.668H342.176V467.964H397.433V467.668Z" fill="#EBEBEB"/>
<path d="M532.682 471.812H509.961V472.108H532.682V471.812Z" fill="#EBEBEB"/>
<path d="M259.296 467.81H149.74V468.106H259.296V467.81Z" fill="#EBEBEB"/>
<path d="M139.203 467.81H115.641V468.106H139.203V467.81Z" fill="#EBEBEB"/>
<path d="M107.33 462.814H68.4233V463.11H107.33V462.814Z" fill="#EBEBEB"/>
<path d="M280.608 399.955H51.9895C50.1985 399.952 48.4819 399.238 47.2166 397.971C45.9513 396.703 45.2407 394.985 45.2407 393.194V71.8213C45.2563 70.0406 45.9738 68.338 47.2374 67.0832C48.501 65.8284 50.2087 65.1229 51.9895 65.1199H280.608C282.401 65.1199 284.121 65.8322 285.389 67.1C286.656 68.3679 287.369 70.0875 287.369 71.8805V393.194C287.369 394.987 286.656 396.707 285.389 397.975C284.121 399.243 282.401 399.955 280.608 399.955ZM51.9895 65.3567C50.277 65.3598 48.6357 66.0423 47.4259 67.2543C46.2161 68.4663 45.5367 70.1088 45.5367 71.8213V393.194C45.5367 394.907 46.2161 396.549 47.4259 397.761C48.6357 398.973 50.277 399.656 51.9895 399.659H280.608C282.322 399.656 283.964 398.974 285.176 397.762C286.387 396.55 287.07 394.908 287.073 393.194V71.8213C287.07 70.1077 286.387 68.4653 285.176 67.2536C283.964 66.0419 282.322 65.3598 280.608 65.3567H51.9895Z" fill="#EBEBEB"/>
<path d="M536.719 399.955H308.089C306.297 399.952 304.579 399.239 303.312 397.971C302.044 396.704 301.331 394.987 301.328 393.194V71.8213C301.347 70.0395 302.067 68.3369 303.332 67.0825C304.598 65.828 306.307 65.1229 308.089 65.1199H536.719C538.498 65.126 540.202 65.8329 541.463 67.0874C542.725 68.3418 543.44 70.0427 543.456 71.8213V393.194C543.456 394.983 542.747 396.699 541.484 397.967C540.221 399.234 538.508 399.949 536.719 399.955ZM308.089 65.3567C306.375 65.3598 304.733 66.0419 303.521 67.2536C302.309 68.4653 301.627 70.1077 301.624 71.8213V393.194C301.627 394.908 302.309 396.55 303.521 397.762C304.733 398.974 306.375 399.656 308.089 399.659H536.719C538.433 399.656 540.075 398.974 541.287 397.762C542.498 396.55 543.181 394.908 543.184 393.194V71.8213C543.181 70.1077 542.498 68.4653 541.287 67.2536C540.075 66.0419 538.433 65.3598 536.719 65.3567H308.089Z" fill="#EBEBEB"/>
<path d="M110.893 308.692H94.5779V452.761H110.893V308.692Z" fill="#EBEBEB"/>
<path d="M267.904 308.692H110.882V452.761H267.904V308.692Z" fill="#F5F5F5"/>
<path d="M262.114 314.281H116.671V447.173H262.114V314.281Z" fill="#EBEBEB"/>
<path d="M259.746 316.909H119.039V331.473H259.746V316.909Z" fill="#F5F5F5"/>
<path d="M259.746 333.237H119.039V372.972H259.746V333.237Z" fill="#F5F5F5"/>
<path d="M259.746 374.748H119.039V444.864H259.746V374.748Z" fill="#F5F5F5"/>
<path d="M230.324 380.372H148.474C148.16 380.372 147.858 380.247 147.636 380.025C147.414 379.803 147.29 379.502 147.29 379.188C147.29 378.874 147.414 378.573 147.636 378.351C147.858 378.129 148.16 378.004 148.474 378.004H230.324C230.638 378.004 230.939 378.129 231.161 378.351C231.383 378.573 231.508 378.874 231.508 379.188C231.508 379.502 231.383 379.803 231.161 380.025C230.939 380.247 230.638 380.372 230.324 380.372Z" fill="#FAFAFA"/>
<path d="M230.324 338.967H148.474C148.16 338.967 147.858 338.843 147.636 338.621C147.414 338.399 147.29 338.097 147.29 337.783C147.29 337.469 147.414 337.168 147.636 336.946C147.858 336.724 148.16 336.599 148.474 336.599H230.324C230.638 336.599 230.939 336.724 231.161 336.946C231.383 337.168 231.508 337.469 231.508 337.783C231.508 338.097 231.383 338.399 231.161 338.621C230.939 338.843 230.638 338.967 230.324 338.967Z" fill="#FAFAFA"/>
<path d="M230.324 322.628H148.474C148.16 322.628 147.858 322.503 147.636 322.281C147.414 322.059 147.29 321.758 147.29 321.444C147.29 321.13 147.414 320.829 147.636 320.607C147.858 320.385 148.16 320.26 148.474 320.26H230.324C230.638 320.26 230.939 320.385 231.161 320.607C231.383 320.829 231.508 321.13 231.508 321.444C231.508 321.758 231.383 322.059 231.161 322.281C230.939 322.503 230.638 322.628 230.324 322.628Z" fill="#FAFAFA"/>
<path d="M284.503 206.395H86.3018V270.343H284.503V206.395Z" fill="#F0F0F0"/>
<path d="M211.782 144.862H159.023V331.875H211.782V144.862Z" fill="#E6E6E6"/>
<path d="M291.856 224.936H239.097V251.801H291.856V224.936Z" fill="#E0E0E0"/>
<path d="M111.32 231.413H47.3718V245.337H111.32V231.413Z" fill="#E6E6E6"/>
<path d="M256.561 216.246H244.875V264.754H256.561V216.246Z" fill="#F0F0F0"/>
<path d="M244.875 216.246H213.641V264.754H244.875V216.246Z" fill="#E0E0E0"/>
<path d="M241.086 221.787H234.503V264.742H241.086V221.787Z" fill="#FAFAFA"/>
<path d="M234.503 221.787H216.909V264.742H234.503V221.787Z" fill="#EBEBEB"/>
<path d="M214.482 264.754H224.226L229.85 224.273H220.094L214.482 264.754Z" fill="#FAFAFA"/>
<path d="M214.482 264.754H188.41L194.034 224.273H220.094L214.482 264.754Z" fill="#EBEBEB"/>
<path d="M187.084 234.657H175.398V283.165H187.084V234.657Z" fill="#E6E6E6"/>
<path d="M153.873 249.954H142.187V267.868H153.873V249.954Z" fill="#E0E0E0"/>
<path d="M151.753 250.736H142.731V267.075H151.753V250.736Z" fill="#F0F0F0"/>
<path d="M182.81 224.261H173.705V272.77H182.81V224.261Z" fill="#F0F0F0"/>
<path d="M149.598 239.559H140.493V257.473H149.598V239.559Z" fill="#E6E6E6"/>
<path d="M147.775 240.34H140.742V256.679H147.775V240.34Z" fill="#F0F0F0"/>
<path d="M133.591 225.445H124.131V264.754H133.591V225.445Z" fill="#F0F0F0"/>
<path d="M124.131 225.445H98.8285V264.754H124.131V225.445Z" fill="#E0E0E0"/>
<path d="M112.302 229.945H103.209V264.754H112.302V229.945Z" fill="#FAFAFA"/>
<path d="M103.209 229.945H91.9021V264.754H103.209V229.945Z" fill="#EBEBEB"/>
<path d="M284.503 125.812H86.3018V189.76H284.503V125.812Z" fill="#F0F0F0"/>
<path d="M211.782 64.2793H159.023V251.292H211.782V64.2793Z" fill="#E6E6E6"/>
<path d="M291.856 144.341H239.097V171.206H291.856V144.341Z" fill="#E0E0E0"/>
<path d="M111.32 150.818H47.3718V164.742H111.32V150.818Z" fill="#E6E6E6"/>
<path d="M194.259 153.316H184.088V184.159H194.259V153.316Z" fill="#F0F0F0"/>
<path d="M184.1 153.316H169.004V184.159H184.1V153.316Z" fill="#E0E0E0"/>
<path d="M178.654 146.769H172.923V184.159H178.654V146.769Z" fill="#FAFAFA"/>
<path d="M172.923 146.769H157.614V184.159H172.923V146.769Z" fill="#EBEBEB"/>
<path d="M257.354 184.159H265.844L270.733 148.923H262.244L257.354 184.159Z" fill="#F0F0F0"/>
<path d="M257.354 184.159H234.669L239.559 148.923H262.244L257.354 184.159Z" fill="#E0E0E0"/>
<path d="M144.14 155.945H133.188V201.422H144.14V155.945Z" fill="#F5F5F5"/>
<path d="M113.001 170.295H102.049V187.084H113.001V170.295Z" fill="#E0E0E0"/>
<path d="M111.024 171.029H102.57V186.35H111.024V171.029Z" fill="#F0F0F0"/>
<path d="M141.121 141.855H132.265V178.618H141.121V141.855Z" fill="#FAFAFA"/>
<path d="M115.949 153.458H107.093V167.039H115.949V153.458Z" fill="#E0E0E0"/>
<path d="M114.351 154.05H107.507V166.435H114.351V154.05Z" fill="#F5F5F5"/>
<path d="M236.575 161.308H227.719V198.071H236.575V161.308Z" fill="#FAFAFA"/>
<path d="M211.403 172.911H202.547V186.492H211.403V172.911Z" fill="#E0E0E0"/>
<path d="M209.805 173.503H202.961V185.888H209.805V173.503Z" fill="#F5F5F5"/>
<path d="M140.138 146.2H131.602V191.678H140.138V146.2Z" fill="#F0F0F0"/>
<path d="M108.999 160.539H100.462V177.328H108.999V160.539Z" fill="#E6E6E6"/>
<path d="M107.294 161.284H100.699V176.605H107.294V161.284Z" fill="#F0F0F0"/>
<path d="M362.943 139.842H501.909L507.865 452.762H368.911L362.943 139.842Z" fill="#F5F5F5"/>
<path d="M502.679 429.437L497.6 162.48C497.51 157.701 495.548 153.148 492.136 149.8C488.724 146.452 484.134 144.577 479.354 144.578H386.375C383.95 144.578 381.549 145.061 379.312 145.999C377.076 146.937 375.049 148.312 373.35 150.043C371.651 151.774 370.315 153.826 369.418 156.079C368.522 158.333 368.084 160.742 368.129 163.167L373.209 430.123C373.299 434.903 375.261 439.456 378.672 442.803C382.084 446.151 386.674 448.026 391.454 448.025H484.445C486.87 448.026 489.27 447.543 491.506 446.604C493.742 445.666 495.768 444.291 497.466 442.56C499.164 440.829 500.499 438.777 501.394 436.523C502.29 434.27 502.726 431.861 502.679 429.437Z" fill="#F0F0F0"/>
<path d="M362.943 139.842H360.291L366.247 452.762H368.911L362.943 139.842Z" fill="#E6E6E6"/>
<path d="M437.168 144.578H458.078L475.246 448.025H454.336L437.168 144.578Z" fill="#FAFAFA"/>
<path d="M420.734 144.578H431.189L448.357 448.025H437.902L420.734 144.578Z" fill="#FAFAFA"/>
<path d="M296 506.231C422.786 506.231 525.566 500.23 525.566 492.828C525.566 485.426 422.786 479.425 296 479.425C169.214 479.425 66.4343 485.426 66.4343 492.828C66.4343 500.23 169.214 506.231 296 506.231Z" fill="#F5F5F5"/>
<path d="M215.855 374.428H317.904C314.352 366.685 307.876 361.937 300.89 361.937H221.562L215.855 374.428Z" fill="#056A68"/>
<path d="M198.663 374.428H239.535C235.983 366.685 229.507 361.937 222.509 361.937H208.041C201.055 361.937 197.586 365.974 198.663 374.428Z" fill="#056A68"/>
<path opacity="0.5" d="M198.663 374.428H239.535C235.983 366.685 229.507 361.937 222.509 361.937H208.041C201.055 361.937 197.586 365.974 198.663 374.428Z" fill="#263238"/>
<path d="M270.651 482.48H261.794V374.428H252.074V482.48H243.217L233.674 491.313H252.074H261.794H280.194L270.651 482.48Z" fill="#056A68"/>
<path opacity="0.7" d="M270.651 482.48H261.794V374.428H252.074V482.48H243.217L233.674 491.313H252.074H261.794H280.194L270.651 482.48Z" fill="white"/>
<path opacity="0.5" d="M261.794 374.428H252.074V378.051H261.794V374.428Z" fill="#056A68"/>
<path d="M325.257 479.461L335.877 476.773L333.355 451.293L322.735 453.981L325.257 479.461Z" fill="#B55B52"/>
<path d="M336.339 472.073L324.144 473.6C324.041 473.609 323.941 473.638 323.849 473.686C323.758 473.734 323.677 473.799 323.611 473.878C323.545 473.958 323.495 474.049 323.465 474.148C323.434 474.246 323.424 474.35 323.433 474.453L324.085 484.173C324.15 484.681 324.413 485.142 324.816 485.457C325.22 485.772 325.731 485.915 326.239 485.855C330.466 485.239 332.159 484.777 337.511 483.7C342.702 482.71 347.839 481.458 352.903 479.946C357.154 478.514 355.674 474.216 353.696 474.453C349.02 475.009 341.655 474.453 338.304 472.452C337.708 472.116 337.018 471.983 336.339 472.073Z" fill="#263238"/>
<path opacity="0.2" d="M322.735 453.993L333.367 451.305L334.575 463.572L323.907 465.892L322.735 453.993Z" fill="black"/>
<path d="M253.376 326.239C253.376 326.239 332.076 323.599 332.337 354.987C332.704 400.085 337.606 456.077 337.606 456.077L317.786 459.013C317.786 459.013 304.288 405.271 304.537 370.059C282.408 363.808 224.936 367.881 218.164 349.54C212.635 334.527 215.524 326.239 215.524 326.239H253.376Z" fill="#263238"/>
<path opacity="0.3" d="M285.64 335.913C285.64 335.913 283.272 353.862 291.453 367.703C295.872 368.159 300.25 368.951 304.548 370.071C304.542 373.492 304.724 376.911 305.093 380.313C318.259 360.67 307.485 338.387 285.64 335.913Z" fill="black"/>
<path d="M316.246 464.223L339.204 459.901L339.583 450.998L314.103 455.485L316.246 464.223Z" fill="#056A68"/>
<path d="M340.424 473.47C339.448 473.577 338.463 473.577 337.487 473.47C337.437 473.464 337.389 473.444 337.35 473.413C337.31 473.382 337.28 473.34 337.262 473.292C337.249 473.246 337.249 473.198 337.262 473.152C337.274 473.106 337.299 473.064 337.333 473.032C337.653 472.748 340.459 470.249 341.844 470.593C342.002 470.635 342.147 470.716 342.267 470.827C342.387 470.939 342.477 471.078 342.531 471.232C342.635 471.46 342.677 471.712 342.652 471.962C342.627 472.211 342.536 472.45 342.389 472.653C341.856 473.157 341.157 473.447 340.424 473.47ZM338.127 472.996C340.128 473.138 341.548 472.89 341.987 472.321C342.077 472.186 342.13 472.03 342.14 471.867C342.151 471.705 342.118 471.543 342.046 471.398C342.027 471.32 341.987 471.25 341.93 471.193C341.874 471.137 341.803 471.097 341.726 471.078C340.992 470.889 339.287 472.037 338.127 472.996Z" fill="#056A68"/>
<path d="M337.547 473.458H337.44C337.4 473.442 337.365 473.417 337.338 473.383C337.311 473.35 337.293 473.311 337.286 473.268C337.286 473.138 336.611 470.048 337.57 468.852C337.693 468.697 337.85 468.572 338.028 468.486C338.207 468.399 338.402 468.355 338.6 468.355C338.816 468.337 339.032 468.391 339.214 468.509C339.396 468.627 339.534 468.802 339.607 469.006C340.009 470.19 338.683 472.629 337.689 473.422L337.547 473.458ZM338.458 468.864C338.356 468.877 338.258 468.909 338.168 468.96C338.079 469.011 338 469.079 337.937 469.16C337.369 469.87 337.511 471.67 337.677 472.712C338.517 471.788 339.37 469.93 339.109 469.16C339.05 469.018 338.944 468.852 338.577 468.852L338.458 468.864Z" fill="#056A68"/>
<path d="M279.329 481.805L290.187 480.42L291.963 454.656L281.105 456.029L279.329 481.805Z" fill="#B55B52"/>
<path d="M290.435 478.928L278.145 478.537C277.939 478.524 277.735 478.592 277.578 478.727C277.421 478.862 277.323 479.053 277.305 479.259L276.405 488.968C276.389 489.479 276.575 489.976 276.923 490.351C277.271 490.725 277.753 490.948 278.264 490.969C282.538 491.028 284.586 490.839 289.997 490.969C293.324 491.076 299.86 491.561 304.418 490.969C308.977 490.377 308.278 485.902 306.301 485.736C301.565 485.357 295.301 482.113 292.294 479.591C291.764 479.171 291.111 478.938 290.435 478.928Z" fill="#263238"/>
<path d="M294.248 480.953C293.265 480.902 292.292 480.739 291.347 480.467C291.3 480.454 291.258 480.428 291.225 480.392C291.191 480.357 291.168 480.313 291.157 480.266C291.152 480.218 291.16 480.169 291.181 480.125C291.202 480.081 291.235 480.044 291.276 480.017C291.631 479.78 294.828 477.768 296.118 478.324C296.268 478.391 296.398 478.495 296.497 478.625C296.597 478.755 296.662 478.908 296.687 479.07C296.753 479.311 296.754 479.565 296.689 479.806C296.625 480.048 296.497 480.268 296.32 480.444C295.715 480.863 294.977 481.044 294.248 480.953ZM292.057 480.124C293.999 480.574 295.444 480.562 295.976 480.065C296.088 479.947 296.166 479.801 296.201 479.642C296.236 479.484 296.228 479.319 296.178 479.165C296.17 479.086 296.142 479.011 296.097 478.946C296.051 478.882 295.989 478.831 295.917 478.798C295.207 478.49 293.36 479.354 292.057 480.124Z" fill="#056A68"/>
<path d="M291.406 480.479C291.367 480.49 291.326 480.49 291.288 480.479C291.25 480.46 291.218 480.431 291.195 480.396C291.172 480.361 291.159 480.32 291.157 480.278C291.157 480.136 291.004 476.986 292.14 475.956C292.286 475.824 292.459 475.727 292.648 475.671C292.837 475.616 293.036 475.604 293.229 475.636C293.449 475.647 293.658 475.733 293.822 475.88C293.986 476.026 294.094 476.225 294.129 476.442C294.354 477.626 292.649 479.875 291.536 480.479C291.494 480.491 291.449 480.491 291.406 480.479ZM293.04 476.098C292.938 476.093 292.837 476.108 292.741 476.142C292.646 476.177 292.558 476.23 292.484 476.299C291.809 476.915 291.655 478.668 291.655 479.757C292.637 478.975 293.774 477.282 293.632 476.489C293.632 476.347 293.525 476.157 293.158 476.11L293.04 476.098Z" fill="#056A68"/>
<path opacity="0.2" d="M281.105 456.041L291.963 454.656L290.944 469.397L280.123 470.237L281.105 456.041Z" fill="black"/>
<path d="M226.606 326.24C226.606 326.24 305.188 333.675 302.382 357.331C298.25 391.442 296.213 464.969 296.213 464.969L276.18 465.762C276.18 465.762 267.691 399.458 272.083 364.506C251.754 364.506 201.967 365.963 197.42 353.708C193.418 342.887 194.851 326.24 194.851 326.24H226.606Z" fill="#263238"/>
<path d="M273.918 466.993L297.965 465.798L298.83 455.343L272.462 457.154L273.918 466.993Z" fill="#056A68"/>
<path d="M260.575 255.543L261.25 260.989C261.486 262.836 261.747 264.683 262.031 266.518C262.623 270.201 263.215 273.871 263.961 277.47C264.707 281.07 265.512 284.574 266.483 288.008C267.368 291.212 268.557 294.325 270.035 297.302C270.595 298.427 271.283 299.483 272.083 300.452C272.202 300.594 272.45 300.831 272.699 301.068C272.948 301.304 273.208 301.541 273.468 301.778C274.013 302.24 274.652 302.713 275.256 303.175C278.072 305.128 281.061 306.82 284.184 308.231C290.95 311.257 297.884 313.894 304.951 316.128L303.672 324.25C299.618 324.114 295.576 323.719 291.572 323.066C289.583 322.758 287.582 322.38 285.652 321.882C283.722 321.385 281.65 320.935 279.661 320.331C275.467 319.151 271.417 317.511 267.584 315.441C266.546 314.869 265.539 314.245 264.565 313.571C264.068 313.215 263.57 312.872 263.073 312.458C262.533 312.047 262.015 311.609 261.522 311.143C259.634 309.317 257.994 307.251 256.644 304.998C254.401 301.172 252.567 297.12 251.174 292.91C249.844 288.992 248.718 285.009 247.799 280.975C246.9 277.009 246.106 273.042 245.526 269.064C245.218 267.075 244.946 265.086 244.685 263.144C244.425 261.202 244.236 259.201 244.07 257.035L260.575 255.543Z" fill="#B55B52"/>
<path d="M243.975 247.634C252.014 239.878 261.913 244.46 265.867 259C268.106 266.795 269.636 274.776 270.437 282.846L244.993 288.103C240.352 274.226 235.758 255.59 243.975 247.634Z" fill="#056A68"/>
<path opacity="0.3" d="M252.192 263.511C250.369 261.877 245.206 269.206 242.045 278.287C242.945 281.674 243.963 285.013 244.993 288.115L260.302 284.942C259.071 275.872 256.253 267.193 252.192 263.511Z" fill="black"/>
<path d="M303.388 314.056L309.45 314.435L304.608 325.565C304.608 325.565 294.153 325.316 294.378 320.177L296.26 317.715C297.126 316.64 298.208 315.758 299.436 315.128C300.663 314.498 302.01 314.133 303.388 314.056Z" fill="#B55B52"/>
<path d="M316.057 315.335L310.824 325.565H304.608L309.45 314.435L316.057 315.335Z" fill="#B55B52"/>
<path d="M244.922 239.855L232.727 236.374L217.051 235.616C214.672 235.506 212.323 236.18 210.364 237.534C208.405 238.888 206.944 240.847 206.205 243.111C203.21 252.228 200.463 265.429 198.462 276.819C196.212 289.583 195.04 308.787 194.804 326.228H253.376C254.714 289.843 259.296 268.33 261.392 256.372C261.794 254.04 261.423 251.64 260.335 249.539C259.247 247.438 257.502 245.75 255.365 244.733L244.922 239.855Z" fill="#056A68"/>
<path opacity="0.3" d="M204.335 249.433C202.073 257.721 200.037 267.868 198.415 276.831C196.959 285.98 195.999 295.201 195.538 304.454C205.187 303.495 215.843 292.389 219.218 277.435C222.592 262.848 214.766 247.669 204.335 249.433Z" fill="black"/>
<path d="M237.593 216.565L242.329 223.8L248.782 233.662C247.947 234.504 247.273 235.491 246.793 236.575C245.609 238.943 244.638 240.731 249.623 244.129C250.161 244.471 250.589 244.961 250.854 245.541C251.119 246.122 251.209 246.766 251.115 247.397C250.83 248.936 249.291 250.428 243.904 249.481C238.721 248.484 233.992 245.858 230.406 241.986C228.607 240.198 229.021 238.848 230.75 236.989C235.616 231.732 237.108 223.338 237.593 216.565Z" fill="#B55B52"/>
<path opacity="0.2" d="M247.196 231.235L243.241 224.202L242.969 224.783C242.618 225.66 242.333 226.562 242.116 227.482C241.394 230.596 243.821 235.06 246.485 237.179L246.793 236.575C247.265 235.562 247.879 234.621 248.616 233.781C248.666 233.73 248.721 233.687 248.782 233.651L247.196 231.235Z" fill="black"/>
<path d="M245.384 259.083C245.307 259.075 245.235 259.041 245.18 258.986C245.125 258.932 245.09 258.861 245.08 258.784C245.071 258.708 245.087 258.63 245.127 258.564C245.168 258.498 245.229 258.447 245.301 258.42L246.142 258.219C250.428 257.283 260.468 255.093 259.556 216.566C259.556 216.476 259.591 216.391 259.653 216.327C259.715 216.263 259.799 216.225 259.888 216.222C259.977 216.222 260.063 216.257 260.127 216.319C260.191 216.38 260.228 216.465 260.231 216.554C261.155 255.626 250.759 257.911 246.284 258.882C245.988 258.882 245.716 259 245.479 259.071L245.384 259.083Z" fill="#263238"/>
<path d="M269.443 205.839C267.714 200.676 261.51 204.11 261.51 204.11C261.51 204.11 261.427 214.92 264.754 217.69C268.081 220.461 271.136 211.048 269.443 205.839Z" fill="#263238"/>
<path d="M239.263 203.754C237.356 214.482 235.711 220.638 239.677 227.517C240.955 229.751 242.815 231.596 245.059 232.856C247.304 234.115 249.848 234.741 252.42 234.667C254.993 234.592 257.497 233.821 259.665 232.435C261.833 231.048 263.584 229.099 264.731 226.795C269.265 217.951 271.61 201.931 262.363 194.827C260.406 193.261 258.072 192.235 255.595 191.853C253.118 191.471 250.584 191.745 248.246 192.649C245.908 193.552 243.848 195.053 242.271 197.002C240.695 198.951 239.658 201.279 239.263 203.754Z" fill="#B55B52"/>
<path d="M237.238 210.065C234.349 214.659 241.56 216.341 241.56 216.341C241.56 216.341 250.191 209.84 250.369 205.519C250.546 201.197 239.535 206.419 237.238 210.065Z" fill="#263238"/>
<path d="M234.432 211.794C233.011 210.61 231.448 206.099 232.644 202.133C233.84 198.166 237.652 193.845 241.086 195.254C242.365 191.595 259.935 187.096 265.808 195.254C272.652 204.785 269.064 209.686 263.369 205.992L252.95 202.618L234.432 211.794Z" fill="#263238"/>
<path d="M265.654 205.128C262.872 208.419 252.322 207.674 252.322 207.674L255.78 203.885C253.478 205.589 250.626 206.378 247.776 206.099C242.602 205.803 245.408 200.487 245.408 200.487C245.408 200.487 270.887 198.912 265.654 205.128Z" fill="#263238"/>
<path d="M233.485 211.522C233.381 213.889 234.152 216.211 235.652 218.046C237.617 220.414 240.648 218.519 241.358 215.607C241.986 212.99 241.169 208.929 238.588 207.674C236.007 206.419 233.615 208.585 233.485 211.522Z" fill="#B55B52"/>
<path d="M232.455 204.714C232.186 202.939 232.295 201.127 232.775 199.397C233.254 197.667 234.093 196.057 235.237 194.673C234.266 194.898 231.223 193.11 236.824 189.369C242.424 185.628 254.051 184.633 259.841 187.486C271.183 193.051 268.046 199.634 268.046 199.634L232.455 204.714Z" fill="#056A68"/>
<path opacity="0.3" d="M232.455 204.714C232.186 202.939 232.295 201.127 232.775 199.397C233.254 197.667 234.093 196.057 235.237 194.673C234.266 194.898 231.223 193.11 236.824 189.369C242.424 185.628 254.051 184.633 259.841 187.486C271.183 193.051 268.046 199.634 268.046 199.634L232.455 204.714Z" fill="black"/>
<path d="M232.68 211.463C234.645 211.534 236.551 205.602 253.21 202.606C259.935 201.422 266.98 203.553 268.946 205.495C270.911 207.437 269.988 201.055 269.277 198.77C268.567 196.485 258.159 194.662 251.399 195.479C239.665 196.888 232.62 202.867 231.65 204.37C230.679 205.874 230.88 211.415 232.68 211.463Z" fill="#056A68"/>
<path d="M238.813 213.12C239.037 213.592 239.073 214.132 238.912 214.63C238.752 215.127 238.407 215.544 237.948 215.796C237.084 216.068 236.066 215.334 235.675 214.138C235.451 213.666 235.415 213.126 235.576 212.629C235.736 212.131 236.081 211.714 236.54 211.462C237.404 211.19 238.422 211.936 238.813 213.12Z" fill="#263238"/>
<path d="M240.21 325.055C238.173 325.055 236.824 324.511 236.078 323.386C234.254 320.663 236.587 315.039 239.061 309.083C241.429 303.518 243.797 297.752 243.134 293.798C241.95 286.256 243.04 276.736 244.105 267.537C244.46 264.506 244.792 261.617 245.041 258.87C240.459 254.134 235.841 248.06 238.268 235.557C239.878 227.269 239.523 220.402 237.214 215.074C237.195 215.034 237.184 214.991 237.181 214.947C237.179 214.903 237.186 214.86 237.202 214.818C237.217 214.777 237.241 214.74 237.272 214.708C237.303 214.677 237.339 214.652 237.38 214.636C237.462 214.599 237.555 214.596 237.639 214.627C237.723 214.658 237.792 214.72 237.83 214.801C240.198 220.271 240.565 227.292 238.931 235.687C236.563 247.965 241.133 253.909 245.633 258.503C245.695 258.579 245.724 258.677 245.716 258.775C245.467 261.605 245.135 264.529 244.768 267.62C243.715 276.772 242.613 286.244 243.797 293.668C244.46 297.812 242.033 303.66 239.677 309.32C237.321 314.98 235.012 320.568 236.634 322.995C237.25 323.919 238.422 324.369 240.186 324.369C240.274 324.369 240.358 324.404 240.421 324.466C240.483 324.528 240.518 324.612 240.518 324.7C240.518 324.788 240.483 324.872 240.421 324.935C240.358 324.997 240.274 325.032 240.186 325.032L240.21 325.055Z" fill="#263238"/>
<path d="M255.614 213.677C255.341 214.517 255.614 215.358 256.099 215.559C256.585 215.76 257.283 215.239 257.567 214.375C257.852 213.511 257.638 212.694 257.094 212.493C256.549 212.291 255.886 212.836 255.614 213.677Z" fill="#263238"/>
<path d="M265.962 218.519C266.845 218.519 267.56 218.053 267.56 217.477C267.56 216.902 266.845 216.435 265.962 216.435C265.079 216.435 264.364 216.902 264.364 217.477C264.364 218.053 265.079 218.519 265.962 218.519Z" fill="#263238"/>
<path d="M261.771 216.672C261.732 219.175 262.027 221.671 262.647 224.096C260.965 224.711 259.095 223.255 259.095 223.255L261.771 216.672Z" fill="#A02724"/>
<path d="M256.75 227.861C255.78 227.536 254.885 227.02 254.118 226.343C253.352 225.665 252.729 224.841 252.287 223.918C252.263 223.855 252.265 223.786 252.291 223.724C252.318 223.662 252.367 223.613 252.429 223.587C252.461 223.573 252.495 223.566 252.529 223.566C252.564 223.566 252.598 223.572 252.63 223.586C252.662 223.599 252.691 223.618 252.716 223.643C252.74 223.668 252.759 223.697 252.772 223.729C253.263 224.725 253.977 225.596 254.857 226.273C255.738 226.951 256.762 227.417 257.852 227.636C257.919 227.65 257.978 227.691 258.016 227.748C258.053 227.806 258.067 227.876 258.053 227.944C258.039 228.011 257.998 228.07 257.94 228.108C257.883 228.146 257.812 228.159 257.745 228.145C257.408 228.07 257.076 227.975 256.75 227.861Z" fill="#263238"/>
<path d="M254.749 210.054C254.673 210.011 254.608 209.95 254.56 209.876C254.523 209.819 254.499 209.755 254.487 209.688C254.476 209.621 254.478 209.552 254.493 209.486C254.508 209.42 254.537 209.357 254.577 209.302C254.617 209.247 254.668 209.201 254.726 209.166C255.402 208.71 256.181 208.428 256.992 208.343C257.803 208.258 258.623 208.374 259.379 208.68C259.446 208.706 259.508 208.745 259.56 208.796C259.611 208.846 259.652 208.907 259.679 208.974C259.705 209.041 259.718 209.113 259.716 209.185C259.713 209.257 259.696 209.328 259.664 209.393C259.633 209.458 259.589 209.516 259.534 209.563C259.479 209.61 259.415 209.645 259.346 209.666C259.276 209.687 259.204 209.693 259.132 209.685C259.06 209.676 258.991 209.652 258.929 209.616C258.333 209.387 257.69 209.305 257.055 209.377C256.42 209.449 255.812 209.673 255.282 210.03C255.203 210.08 255.113 210.109 255.019 210.113C254.925 210.117 254.833 210.097 254.749 210.054Z" fill="#263238"/>
<path d="M266.838 211.699C266.815 211.614 266.815 211.524 266.838 211.439C266.891 211.312 266.991 211.211 267.117 211.158C267.243 211.105 267.386 211.104 267.513 211.155C268.273 211.451 268.948 211.93 269.479 212.549C270.01 213.169 270.38 213.91 270.556 214.707C270.558 214.832 270.516 214.954 270.435 215.051C270.355 215.147 270.243 215.211 270.119 215.232C269.995 215.252 269.868 215.226 269.761 215.16C269.654 215.094 269.575 214.992 269.538 214.872C269.386 214.249 269.087 213.672 268.664 213.189C268.241 212.707 267.708 212.334 267.11 212.102C267.034 212.064 266.968 212.008 266.92 211.937C266.872 211.866 266.844 211.784 266.838 211.699Z" fill="#263238"/>
<path d="M222.592 251.872C221.609 253.648 220.532 255.673 219.514 257.591C218.495 259.509 217.489 261.51 216.518 263.511C214.564 267.454 212.729 271.42 211.06 275.351C209.427 279.2 208.058 283.156 206.963 287.191C206.497 288.963 206.164 290.768 205.969 292.59C205.767 294.165 206.052 295.87 205.969 295.503C206.524 296.456 207.295 297.267 208.218 297.871C209.701 298.973 211.287 299.929 212.954 300.724C216.782 302.56 220.739 304.111 224.794 305.366C228.891 306.656 233.248 307.84 237.522 309.024C241.796 310.208 246.308 311.132 250.617 312.079L249.812 320.26C240.355 320.109 230.929 319.122 221.645 317.312C216.805 316.383 212.053 315.048 207.437 313.322C204.883 312.357 202.429 311.148 200.108 309.711C197.102 307.933 194.591 305.429 192.803 302.429C192.261 301.441 191.829 300.397 191.512 299.315L191.287 298.498L191.157 297.859C191.05 297.421 190.991 297.018 190.92 296.592C190.697 295.044 190.598 293.48 190.624 291.915C190.686 289.165 190.999 286.427 191.559 283.734C192.569 278.832 193.979 274.02 195.774 269.348C197.468 264.802 199.397 260.421 201.469 256.135C202.511 253.988 203.589 251.869 204.702 249.777C205.815 247.646 206.94 245.656 208.254 243.466L222.592 251.872Z" fill="#B55B52"/>
<path d="M213.582 235.817C224.617 234.136 230.039 243.608 224.853 257.745C222.162 265.394 218.786 272.785 214.766 279.827L190.979 269.396C195.242 255.401 202.263 237.534 213.582 235.817Z" fill="#056A68"/>
<path d="M251.576 312.174L258.183 314.435L249.41 322.818C249.41 322.818 238.694 318.97 240.885 314.317L243.584 312.777C244.799 312.121 246.139 311.728 247.516 311.624C248.893 311.52 250.277 311.707 251.576 312.174Z" fill="#B55B52"/>
<path d="M265.962 318.887L256.052 324.724L249.421 322.818L258.183 314.435L265.962 318.887Z" fill="#B55B52"/>
<path d="M421.847 325.221H176.025V333.225H421.847V325.221Z" fill="#056A68"/>
<path opacity="0.6" d="M421.847 325.221H176.025V333.225H421.847V325.221Z" fill="white"/>
<path opacity="0.5" d="M225.078 325.221H176.025V333.225H225.078V325.221Z" fill="#056A68"/>
<path d="M355.271 322.569H239.44C238.738 322.572 238.065 322.853 237.568 323.349C237.072 323.846 236.791 324.519 236.788 325.221H357.935C357.932 324.517 357.65 323.842 357.151 323.345C356.651 322.848 355.976 322.569 355.271 322.569Z" fill="#056A68"/>
<path d="M370.592 268.377H291.442C290.935 268.403 290.449 268.585 290.05 268.899C289.651 269.213 289.36 269.643 289.216 270.13L276.192 318.958C276.117 319.16 276.093 319.378 276.124 319.592C276.154 319.805 276.237 320.008 276.365 320.182C276.492 320.356 276.662 320.495 276.857 320.587C277.052 320.679 277.267 320.722 277.482 320.71H356.668C357.176 320.695 357.666 320.516 358.065 320.2C358.464 319.885 358.75 319.449 358.882 318.958L371.906 270.13C371.982 269.925 372.005 269.705 371.974 269.489C371.943 269.274 371.858 269.069 371.727 268.895C371.596 268.721 371.424 268.582 371.226 268.491C371.027 268.401 370.809 268.362 370.592 268.377Z" fill="#056A68"/>
<path opacity="0.2" d="M289.216 270.13L276.192 318.958C276.117 319.16 276.093 319.378 276.124 319.592C276.154 319.805 276.237 320.008 276.365 320.182C276.492 320.356 276.662 320.495 276.857 320.587C277.052 320.679 277.267 320.722 277.482 320.71L291.406 268.377C290.906 268.41 290.427 268.596 290.035 268.909C289.644 269.223 289.358 269.649 289.216 270.13Z" fill="black"/>
<path opacity="0.2" d="M273.244 322.569H239.44C238.738 322.572 238.065 322.853 237.568 323.349C237.072 323.846 236.791 324.519 236.788 325.221H275.86C275.857 324.525 275.582 323.857 275.093 323.362C274.604 322.866 273.94 322.581 273.244 322.569Z" fill="black"/>
<path d="M226.807 492.828H231.543L224.901 456.243H229.033V451.507H224.013L203.388 337.914H206.43V333.178H194.661V337.914H197.728L177.103 451.507H172.106V456.243H176.238L169.596 492.828H174.332L180.974 456.243H220.224L226.807 492.828ZM181.815 451.53L200.581 348.226L219.336 451.53H181.815Z" fill="#056A68"/>
<path d="M421.788 488.471H426.524L419.882 456.243H424.014V451.507H419.018L398.392 337.914H401.376V333.178H389.607V337.914H392.65L372.025 451.507H367.04V456.243H371.172L364.53 488.471H369.266L375.908 456.243H415.146L421.788 488.471ZM376.796 451.53L395.551 348.226L414.317 451.53H376.796Z" fill="#056A68"/>
<path d="M399.92 322.569H369.562C369.085 322.569 368.698 322.956 368.698 323.433V324.357C368.698 324.834 369.085 325.221 369.562 325.221H399.92C400.397 325.221 400.784 324.834 400.784 324.357V323.433C400.784 322.956 400.397 322.569 399.92 322.569Z" fill="#263238"/>
<path opacity="0.9" d="M315.654 259.225C315.438 259.228 315.224 259.185 315.025 259.099C314.827 259.012 314.649 258.885 314.503 258.725C314.358 258.565 314.248 258.376 314.181 258.17C314.114 257.964 314.092 257.747 314.115 257.532L318.981 202.784C319.03 202.325 319.245 201.9 319.585 201.588C319.925 201.276 320.367 201.099 320.828 201.09H387.464C387.68 201.088 387.895 201.131 388.093 201.217C388.292 201.303 388.47 201.43 388.615 201.59C388.761 201.75 388.87 201.94 388.937 202.145C389.004 202.351 389.027 202.569 389.003 202.784L384.137 257.532C384.088 257.99 383.873 258.416 383.533 258.727C383.193 259.039 382.751 259.216 382.29 259.225H315.654Z" fill="#263238"/>
<path d="M371.871 218.128H333.308L333.438 216.708H372.001L371.871 218.128Z" fill="white"/>
<path d="M377.921 220.402H337.073L337.191 218.981H378.051L377.921 220.402Z" fill="#056A68"/>
<path d="M370.722 222.675H336.872L336.99 221.254H370.841L370.722 222.675Z" fill="#056A68"/>
<path d="M366.981 224.948H336.67L336.789 223.527H367.111L366.981 224.948Z" fill="#056A68"/>
<path d="M357.438 228.654H332.384L332.503 227.221H357.556L357.438 228.654Z" fill="white"/>
<path d="M362.754 234.041H335.853L335.735 235.474H362.624L362.754 234.041Z" fill="#056A68"/>
<path d="M358.349 231.768H336.055L335.936 233.201H358.219L358.349 231.768Z" fill="#056A68"/>
<path d="M360.812 229.495H336.256L336.138 230.927H360.682L360.812 229.495Z" fill="#056A68"/>
<path d="M355.887 245.988H330.833L330.964 244.567H356.017L355.887 245.988Z" fill="white"/>
<path d="M361.215 251.387H334.314L334.184 252.808H361.084L361.215 251.387Z" fill="#056A68"/>
<path d="M356.81 249.114H334.516L334.397 250.534H356.68L356.81 249.114Z" fill="#056A68"/>
<path d="M359.273 246.84H334.717L334.598 248.261H359.143L359.273 246.84Z" fill="#056A68"/>
<path d="M345.775 207.532H325.434L325.553 206.099H345.906L345.775 207.532Z" fill="white"/>
<path d="M350.014 212.919H328.169L328.039 214.351H349.884L350.014 212.919Z" fill="white"/>
<path d="M346.462 210.646H328.371L328.24 212.078H346.344L346.462 210.646Z" fill="white"/>
<path d="M348.499 208.372H328.572L328.442 209.805H348.38L348.499 208.372Z" fill="white"/>
<path d="M362.15 240.861H335.25L335.119 242.294H362.02L362.15 240.861Z" fill="#056A68"/>
<path d="M357.746 238.588H335.451L335.321 240.021H357.615L357.746 238.588Z" fill="#056A68"/>
<path d="M360.208 236.314H335.652L335.534 237.747H360.078L360.208 236.314Z" fill="#056A68"/>
<path d="M409.332 193.489H364.921C364.528 193.495 364.14 193.417 363.78 193.261C363.42 193.105 363.097 192.875 362.833 192.585C362.569 192.295 362.369 191.952 362.248 191.58C362.126 191.207 362.084 190.813 362.126 190.423L365.465 152.878C365.549 152.075 365.924 151.33 366.52 150.785C367.115 150.239 367.89 149.931 368.698 149.918H413.098C413.49 149.912 413.879 149.99 414.238 150.146C414.598 150.302 414.921 150.532 415.185 150.822C415.449 151.112 415.649 151.455 415.771 151.828C415.892 152.2 415.934 152.595 415.892 152.985L412.553 190.529C412.472 191.331 412.099 192.076 411.505 192.622C410.912 193.167 410.139 193.476 409.332 193.489ZM368.698 151.102C368.184 151.113 367.693 151.31 367.314 151.656C366.935 152.003 366.695 152.475 366.637 152.985L363.31 190.529C363.283 190.757 363.304 190.988 363.374 191.206C363.443 191.425 363.559 191.626 363.713 191.796C363.865 191.957 364.049 192.086 364.252 192.173C364.456 192.261 364.675 192.306 364.897 192.305H409.309C409.821 192.294 410.311 192.096 410.688 191.75C411.065 191.403 411.303 190.932 411.357 190.423L414.696 152.878C414.717 152.652 414.692 152.423 414.62 152.207C414.549 151.991 414.434 151.792 414.282 151.623C414.131 151.459 413.948 151.328 413.744 151.238C413.54 151.149 413.32 151.102 413.098 151.102H368.698Z" fill="#056A68"/>
<path d="M414.637 161.107H365.382C365.225 161.107 365.075 161.044 364.964 160.933C364.853 160.822 364.79 160.672 364.79 160.515C364.79 160.358 364.853 160.207 364.964 160.096C365.075 159.985 365.225 159.923 365.382 159.923H414.637C414.794 159.923 414.944 159.985 415.055 160.096C415.166 160.207 415.229 160.358 415.229 160.515C415.226 160.671 415.162 160.82 415.052 160.93C414.942 161.04 414.793 161.104 414.637 161.107Z" fill="#056A68"/>
<path d="M374.144 193.489H374.085C374.007 193.483 373.932 193.462 373.863 193.426C373.794 193.391 373.733 193.342 373.683 193.282C373.634 193.223 373.596 193.154 373.574 193.079C373.551 193.005 373.544 192.927 373.552 192.85L376.429 160.456C376.447 160.302 376.523 160.161 376.642 160.062C376.761 159.962 376.914 159.913 377.068 159.923C377.146 159.929 377.222 159.95 377.292 159.986C377.361 160.021 377.423 160.07 377.474 160.129C377.524 160.189 377.563 160.258 377.587 160.332C377.611 160.406 377.62 160.484 377.613 160.562L374.724 192.992C374.7 193.129 374.628 193.253 374.523 193.344C374.417 193.435 374.283 193.486 374.144 193.489Z" fill="#056A68"/>
<path d="M408.859 164.955H382.124C381.967 164.955 381.817 164.893 381.706 164.782C381.595 164.671 381.532 164.52 381.532 164.363C381.532 164.206 381.595 164.055 381.706 163.944C381.817 163.833 381.967 163.771 382.124 163.771H408.859C409.016 163.771 409.166 163.833 409.278 163.944C409.389 164.055 409.451 164.206 409.451 164.363C409.451 164.52 409.389 164.671 409.278 164.782C409.166 164.893 409.016 164.955 408.859 164.955Z" fill="#056A68"/>
<path d="M404.668 169.679H381.698C381.542 169.676 381.393 169.613 381.283 169.502C381.172 169.392 381.109 169.243 381.106 169.087C381.106 168.93 381.168 168.78 381.279 168.669C381.39 168.557 381.541 168.495 381.698 168.495H404.668C404.825 168.495 404.975 168.557 405.086 168.669C405.197 168.78 405.26 168.93 405.26 169.087C405.26 169.244 405.197 169.395 405.086 169.506C404.975 169.617 404.825 169.679 404.668 169.679Z" fill="#056A68"/>
<path d="M394.639 174.545H381.248C381.091 174.545 380.94 174.483 380.829 174.372C380.718 174.261 380.656 174.11 380.656 173.953C380.656 173.796 380.718 173.646 380.829 173.535C380.94 173.424 381.091 173.361 381.248 173.361H394.615C394.771 173.364 394.92 173.428 395.031 173.538C395.141 173.648 395.204 173.797 395.207 173.953C395.207 174.106 395.148 174.253 395.042 174.364C394.936 174.474 394.792 174.539 394.639 174.545Z" fill="#056A68"/>
<path d="M396.747 184.053H380.419C380.262 184.053 380.112 183.991 380.001 183.88C379.89 183.768 379.827 183.618 379.827 183.461C379.83 183.305 379.894 183.156 380.004 183.046C380.114 182.935 380.263 182.872 380.419 182.869H396.747C396.903 182.872 397.051 182.935 397.162 183.046C397.272 183.156 397.336 183.305 397.339 183.461C397.339 183.539 397.323 183.616 397.293 183.687C397.264 183.759 397.22 183.825 397.165 183.88C397.11 183.934 397.045 183.978 396.973 184.008C396.901 184.038 396.824 184.053 396.747 184.053Z" fill="#056A68"/>
<path d="M393.36 188.931H379.993C379.836 188.931 379.685 188.868 379.574 188.757C379.463 188.646 379.401 188.496 379.401 188.339C379.401 188.182 379.463 188.031 379.574 187.92C379.685 187.809 379.836 187.747 379.993 187.747H393.36C393.517 187.747 393.668 187.809 393.779 187.92C393.89 188.031 393.952 188.182 393.952 188.339C393.952 188.496 393.89 188.646 393.779 188.757C393.668 188.868 393.517 188.931 393.36 188.931Z" fill="#056A68"/>
<path d="M401.187 188.931H396.9C396.743 188.931 396.593 188.868 396.482 188.757C396.371 188.646 396.308 188.496 396.308 188.339C396.308 188.182 396.371 188.031 396.482 187.92C396.593 187.809 396.743 187.747 396.9 187.747H401.187C401.344 187.747 401.494 187.809 401.605 187.92C401.716 188.031 401.779 188.182 401.779 188.339C401.779 188.496 401.716 188.646 401.605 188.757C401.494 188.868 401.344 188.931 401.187 188.931Z" fill="#056A68"/>
<path d="M405.887 179.269H380.845C380.688 179.269 380.538 179.207 380.427 179.096C380.316 178.985 380.253 178.834 380.253 178.677C380.253 178.52 380.316 178.37 380.427 178.259C380.538 178.148 380.688 178.085 380.845 178.085H405.887C406.044 178.085 406.195 178.148 406.306 178.259C406.417 178.37 406.479 178.52 406.479 178.677C406.479 178.834 406.417 178.985 406.306 179.096C406.195 179.207 406.044 179.269 405.887 179.269Z" fill="#056A68"/>
<path d="M317.478 189.807C317.318 189.807 317.164 189.743 317.052 189.629C316.943 189.519 316.882 189.37 316.882 189.215C316.882 189.06 316.943 188.911 317.052 188.801L320.012 185.841L317.052 182.892C316.996 182.837 316.953 182.772 316.923 182.7C316.893 182.627 316.877 182.55 316.877 182.472C316.877 182.394 316.893 182.317 316.923 182.245C316.953 182.173 316.996 182.107 317.052 182.052C317.107 181.997 317.172 181.953 317.244 181.923C317.316 181.893 317.394 181.878 317.472 181.878C317.55 181.878 317.627 181.893 317.699 181.923C317.771 181.953 317.837 181.997 317.892 182.052L321.267 185.426C321.376 185.539 321.437 185.69 321.437 185.846C321.437 186.003 321.376 186.154 321.267 186.267L317.892 189.629C317.838 189.685 317.774 189.73 317.703 189.76C317.632 189.791 317.555 189.807 317.478 189.807Z" fill="#263238"/>
<path d="M307.366 189.807C307.289 189.807 307.212 189.791 307.141 189.76C307.07 189.73 307.006 189.685 306.952 189.629L303.578 186.267C303.468 186.154 303.407 186.003 303.407 185.846C303.407 185.69 303.468 185.539 303.578 185.426L306.952 182.052C307.007 181.997 307.073 181.953 307.145 181.923C307.217 181.893 307.294 181.878 307.372 181.878C307.45 181.878 307.528 181.893 307.6 181.923C307.672 181.953 307.737 181.997 307.793 182.052C307.848 182.107 307.892 182.173 307.921 182.245C307.951 182.317 307.967 182.394 307.967 182.472C307.967 182.55 307.951 182.627 307.921 182.7C307.892 182.772 307.848 182.837 307.793 182.892L304.833 185.841L307.793 188.801C307.901 188.911 307.962 189.06 307.962 189.215C307.962 189.37 307.901 189.519 307.793 189.629C307.68 189.743 307.526 189.807 307.366 189.807Z" fill="#263238"/>
<path d="M311.155 189.807C311.089 189.818 311.021 189.818 310.954 189.807C310.809 189.751 310.691 189.64 310.627 189.499C310.562 189.357 310.557 189.195 310.611 189.049L313.132 182.3C313.188 182.155 313.299 182.037 313.441 181.973C313.583 181.909 313.744 181.903 313.89 181.957C314.038 182.01 314.158 182.12 314.225 182.262C314.291 182.404 314.299 182.567 314.245 182.715L311.712 189.464C311.664 189.57 311.586 189.66 311.486 189.721C311.387 189.782 311.272 189.812 311.155 189.807Z" fill="#263238"/>
<path d="M393.005 277.174C392.927 277.175 392.85 277.16 392.779 277.129C392.708 277.099 392.644 277.054 392.591 276.997C392.535 276.942 392.491 276.876 392.461 276.804C392.431 276.732 392.416 276.655 392.416 276.576C392.416 276.498 392.431 276.421 392.461 276.349C392.491 276.277 392.535 276.211 392.591 276.156L395.539 273.208L392.591 270.248C392.481 270.138 392.419 269.989 392.419 269.834C392.419 269.678 392.481 269.529 392.591 269.419C392.701 269.309 392.85 269.248 393.005 269.248C393.161 269.248 393.31 269.309 393.42 269.419L396.794 272.782C396.905 272.896 396.969 273.049 396.972 273.208C396.968 273.364 396.904 273.512 396.794 273.622L393.42 277.056C393.362 277.102 393.295 277.137 393.224 277.157C393.153 277.177 393.079 277.183 393.005 277.174Z" fill="#056A68"/>
<path d="M382.894 277.174C382.813 277.188 382.73 277.184 382.65 277.164C382.571 277.143 382.497 277.107 382.432 277.056L379.058 273.682C378.948 273.569 378.887 273.418 378.887 273.261C378.887 273.104 378.948 272.954 379.058 272.841L382.432 269.478C382.487 269.423 382.553 269.379 382.625 269.349C382.697 269.319 382.774 269.303 382.852 269.303C382.93 269.303 383.008 269.319 383.08 269.349C383.152 269.379 383.218 269.423 383.273 269.478C383.381 269.589 383.442 269.738 383.442 269.893C383.442 270.048 383.381 270.196 383.273 270.307L380.313 273.267L383.273 276.215C383.382 276.328 383.443 276.479 383.443 276.636C383.443 276.793 383.382 276.943 383.273 277.056C383.163 277.137 383.03 277.179 382.894 277.174Z" fill="#056A68"/>
<path d="M386.694 277.174C386.624 277.191 386.551 277.191 386.481 277.174C386.408 277.148 386.341 277.107 386.284 277.055C386.227 277.002 386.182 276.939 386.15 276.868C386.118 276.797 386.1 276.721 386.098 276.644C386.096 276.566 386.11 276.489 386.138 276.417L388.66 269.668C388.715 269.52 388.826 269.401 388.969 269.335C389.113 269.27 389.276 269.264 389.424 269.319C389.571 269.374 389.691 269.485 389.756 269.628C389.822 269.771 389.828 269.935 389.773 270.082L387.239 276.831C387.192 276.936 387.116 277.024 387.019 277.085C386.922 277.146 386.809 277.177 386.694 277.174Z" fill="#056A68"/>
<path d="M366.27 142.909C366.11 142.908 365.957 142.845 365.844 142.731C365.736 142.621 365.675 142.472 365.675 142.317C365.675 142.162 365.736 142.013 365.844 141.902L368.804 138.942L365.844 135.994C365.733 135.883 365.67 135.732 365.67 135.574C365.67 135.416 365.733 135.265 365.844 135.154C365.956 135.042 366.107 134.979 366.264 134.979C366.422 134.979 366.573 135.042 366.685 135.154L370.059 138.528C370.168 138.641 370.229 138.791 370.229 138.948C370.229 139.105 370.168 139.256 370.059 139.369L366.685 142.731C366.631 142.787 366.567 142.831 366.496 142.862C366.424 142.892 366.348 142.908 366.27 142.909Z" fill="#056A68"/>
<path d="M356.159 142.909C356.003 142.907 355.854 142.843 355.745 142.731L352.37 139.369C352.261 139.256 352.2 139.105 352.2 138.948C352.2 138.791 352.261 138.641 352.37 138.528L355.745 135.154C355.856 135.042 356.007 134.979 356.165 134.979C356.323 134.979 356.474 135.042 356.585 135.154C356.697 135.265 356.759 135.416 356.759 135.574C356.759 135.732 356.697 135.883 356.585 135.994L353.625 138.942L356.585 141.902C356.694 142.013 356.754 142.162 356.754 142.317C356.754 142.472 356.694 142.621 356.585 142.731C356.472 142.845 356.319 142.908 356.159 142.909Z" fill="#056A68"/>
<path d="M359.936 142.909H359.735C359.589 142.853 359.472 142.742 359.407 142.6C359.343 142.459 359.337 142.297 359.391 142.151L361.913 135.402C361.969 135.257 362.08 135.139 362.222 135.075C362.364 135.011 362.525 135.005 362.671 135.059C362.819 135.112 362.939 135.222 363.005 135.364C363.072 135.506 363.08 135.669 363.026 135.817L360.492 142.565C360.445 142.672 360.367 142.762 360.267 142.823C360.168 142.884 360.053 142.914 359.936 142.909Z" fill="#056A68"/>
</svg>
