<svg width="32" height="32" viewBox="0 0 32 32" fill="none" xmlns="http://www.w3.org/2000/svg">
<path d="M25.3333 14.6668H17.3333V6.66683C17.3333 6.31321 17.1928 5.97407 16.9428 5.72402C16.6927 5.47397 16.3536 5.3335 16 5.3335C15.6464 5.3335 15.3072 5.47397 15.0572 5.72402C14.8071 5.97407 14.6666 6.31321 14.6666 6.66683V14.6668H6.66665C6.31302 14.6668 5.97389 14.8073 5.72384 15.0574C5.47379 15.3074 5.33331 15.6465 5.33331 16.0002C5.33331 16.3538 5.47379 16.6929 5.72384 16.943C5.97389 17.193 6.31302 17.3335 6.66665 17.3335H14.6666V25.3335C14.6666 25.6871 14.8071 26.0263 15.0572 26.2763C15.3072 26.5264 15.6464 26.6668 16 26.6668C16.3536 26.6668 16.6927 26.5264 16.9428 26.2763C17.1928 26.0263 17.3333 25.6871 17.3333 25.3335V17.3335H25.3333C25.6869 17.3335 26.0261 17.193 26.2761 16.943C26.5262 16.6929 26.6666 16.3538 26.6666 16.0002C26.6666 15.6465 26.5262 15.3074 26.2761 15.0574C26.0261 14.8073 25.6869 14.6668 25.3333 14.6668Z" fill="#028D8C"/>
</svg>
