<svg width="102" height="38" viewBox="0 0 102 38" fill="none" xmlns="http://www.w3.org/2000/svg">
<path d="M10.012 0.710938H9.67091C4.32908 0.710938 0 3.14163 0 6.14359V18.4651C0 21.467 4.32908 23.8977 9.67091 23.8977H10.012C11.2249 23.901 12.4348 23.7696 13.6222 23.5057V19.8484C12.4984 20.6267 11.1777 21.0177 9.83882 20.9686C7.2886 20.9686 5.21589 19.8036 5.21589 18.3699V6.2612C5.21589 4.82743 7.31484 3.66249 9.83882 3.66249C10.9712 3.63773 12.0931 3.89871 13.1132 4.42418C13.9475 4.89464 14.467 5.54432 14.467 6.2612V11.2514C16.2722 11.3148 18.0466 11.7683 19.6829 12.5844V6.14359C19.6829 3.14163 15.3538 0.710938 10.012 0.710938Z" fill="#028D8C"/>
<path d="M10.5054 37.289H10.8465C16.1883 37.289 20.5174 34.8583 20.5174 31.8564V19.5349C20.5174 16.5385 16.1883 14.1078 10.8465 14.1078H10.5054C9.29256 14.1046 8.08266 14.236 6.89525 14.4999V18.1627C8.01907 17.3845 9.33975 16.9935 10.6786 17.0426C13.2288 17.0426 15.3015 18.2075 15.3015 19.6413V31.7388C15.3015 33.1725 13.2288 34.3319 10.6786 34.3319C9.54687 34.3554 8.42563 34.0965 7.40424 33.5758C6.56991 33.1053 6.05042 32.4556 6.05042 31.7388V26.6982C4.24683 26.6355 2.47402 26.182 0.839783 25.3652V31.8564C0.839783 34.8583 5.16362 37.289 10.5054 37.289Z" fill="#028D8C"/>
<path d="M29.043 17.199C30.1553 17.1752 31.2626 17.3649 32.3121 17.7591C33.1327 18.0647 33.8687 18.5845 34.453 19.2713C35.0039 19.9391 35.401 20.735 35.6127 21.5955C35.8477 22.5648 35.9623 23.5628 35.9537 24.5639V36.5493L34.7993 36.751C34.2746 36.8406 33.7499 36.919 33.1202 36.9918C32.4905 37.0646 31.8293 37.1318 31.0999 37.1934C30.3706 37.255 29.6569 37.2886 28.9433 37.2886C28.0003 37.2967 27.0597 37.1858 26.1412 36.9582C25.3484 36.7616 24.5984 36.4041 23.932 35.9053C23.3027 35.4162 22.8021 34.7623 22.4785 34.0066C22.1105 33.1127 21.9314 32.1432 21.9538 31.1671C21.9312 30.2158 22.139 29.2744 22.5572 28.434C22.9524 27.6834 23.5169 27.05 24.1996 26.5913C24.9447 26.1025 25.763 25.7539 26.6187 25.5608C27.5729 25.333 28.548 25.2203 29.5257 25.2248C29.8458 25.2248 30.1816 25.2248 30.528 25.2808C30.8743 25.3368 31.1996 25.3704 31.5092 25.4264L32.3226 25.5944C32.5535 25.6448 32.7161 25.6784 32.8053 25.7064V24.7263C32.8054 24.1612 32.7473 23.5977 32.6322 23.0461C32.5272 22.5134 32.3161 22.011 32.013 21.5731C31.6919 21.1229 31.2696 20.7666 30.7851 20.537C30.1455 20.2548 29.4565 20.123 28.7649 20.1506C27.8311 20.1383 26.8983 20.2189 25.9785 20.3914C25.3718 20.4954 24.776 20.6623 24.1996 20.8899L23.8218 18.0503C24.4995 17.7799 25.2036 17.592 25.9208 17.4902C26.9518 17.2984 27.9964 17.201 29.043 17.199ZM29.3211 34.3875C30.0819 34.3875 30.7536 34.3875 31.3413 34.3315C31.8357 34.3109 32.3274 34.2435 32.8106 34.1298V28.4116C32.4516 28.2524 32.0737 28.1468 31.6876 28.0979C31.0635 28.0053 30.4339 27.9623 29.8038 27.9691C29.2897 27.9722 28.7762 28.0096 28.2664 28.0811C27.7515 28.1482 27.2501 28.3032 26.7814 28.5404C26.3439 28.7646 25.9599 29.0921 25.6584 29.4981C25.3412 29.9635 25.182 30.5305 25.2071 31.1055C25.2071 32.3376 25.5797 33.1889 26.3143 33.6706C27.2378 34.1943 28.2766 34.442 29.3211 34.3875Z" fill="#028D8C"/>
<path d="M40.6106 18.514C41.1719 18.1617 41.7686 17.8781 42.3894 17.6683C43.2762 17.3572 44.2057 17.2077 45.139 17.2258C46.3208 17.2032 47.4933 17.4535 48.576 17.9595C49.5581 18.4346 50.4265 19.1412 51.1158 20.0261C51.8338 20.9619 52.3691 22.0417 52.69 23.2017C53.0549 24.5175 53.2319 25.8845 53.2147 27.2566C53.2333 28.6823 53.0166 30.1004 52.5745 31.4459C52.1862 32.6228 51.5673 33.6977 50.759 34.5991C49.9588 35.4708 48.9924 36.1489 47.9254 36.5873C46.7351 37.073 45.4686 37.3107 44.1945 37.2874C42.8638 37.3036 41.5345 37.193 40.2222 36.957C39.0678 36.7386 38.1233 36.5145 37.3887 36.2961V8.81361L40.6001 8.25354L40.6106 18.514ZM40.6106 33.8598C41.0593 33.9827 41.515 34.0744 41.9749 34.1342C42.7041 34.2307 43.4387 34.2738 44.1735 34.2631C44.9474 34.2991 45.7192 34.1544 46.4352 33.839C47.1513 33.5237 47.7941 33.0453 48.3189 32.4372C49.3684 31.2238 49.8931 29.4969 49.8931 27.2566C49.9003 26.326 49.807 25.3977 49.615 24.4899C49.4578 23.6871 49.1528 22.9256 48.7177 22.2496C48.3045 21.6234 47.753 21.1156 47.112 20.771C46.3731 20.3982 45.5625 20.216 44.7455 20.239C43.9178 20.2281 43.0961 20.3898 42.3264 20.715C41.7191 20.9577 41.1481 21.2935 40.6315 21.712L40.6106 33.8598Z" fill="#028D8C"/>
<path d="M57.8668 37.2889H54.6502V18.1122H57.8668V37.2889Z" fill="#028D8C"/>
<path d="M64.7638 37.289C62.7803 37.2404 61.381 36.7868 60.5659 35.928C59.7508 35.0692 59.3293 33.7307 59.3013 31.9123V8.88795L62.5179 8.32788V31.3522C62.5065 31.8233 62.5523 32.2939 62.6543 32.7524C62.7276 33.0853 62.8835 33.3909 63.1056 33.6373C63.3379 33.8759 63.6232 34.0474 63.9347 34.1358C64.3524 34.2625 64.7787 34.3542 65.2098 34.4102L64.7638 37.289Z" fill="#F28705"/>
<path d="M69.8556 37.2889H66.6443V18.1122H69.8556V37.2889Z" fill="#F28705"/>
<path d="M71.29 18.6611C72.0299 18.4651 73.0059 18.2579 74.2286 18.0339C75.6171 17.8017 77.0211 17.6912 78.4265 17.7034C79.6406 17.6649 80.8498 17.8838 81.9842 18.3475C82.8713 18.7328 83.6502 19.3559 84.2458 20.1565C84.8344 20.9836 85.2431 21.9402 85.4422 22.9569C85.6774 24.133 85.7918 25.3331 85.7833 26.5357V37.289H82.5719V27.2414C82.5859 26.2279 82.5104 25.2153 82.3462 24.217C82.2431 23.4982 81.998 22.8109 81.6274 22.2008C81.2824 21.6864 80.7994 21.2958 80.2421 21.0806C79.5542 20.8263 78.8289 20.7067 78.1011 20.7278C77.7548 20.7278 77.398 20.7278 77.0517 20.767C76.7053 20.8062 76.3275 20.823 76.0022 20.8566C75.6768 20.8902 75.3672 20.9406 75.1049 20.9854L74.5329 21.0974V37.289H71.3163L71.29 18.6611Z" fill="#F28705"/>
<path d="M93.7092 26.7261C94.4835 27.373 95.2163 28.0747 95.9026 28.8263C96.6757 29.6664 97.4348 30.57 98.1799 31.5371C98.9303 32.5116 99.6387 33.4917 100.305 34.4886C100.914 35.3909 101.48 36.3255 102 37.289H98.2324C97.7173 36.3795 97.1586 35.4991 96.5585 34.651C95.9236 33.7549 95.2624 32.898 94.5697 32.0691C93.9073 31.2749 93.2067 30.5178 92.4708 29.8009C91.8297 29.1754 91.1494 28.5972 90.4348 28.0703V37.2722H87.2182V9.26881L90.4348 8.70874V26.1324L92.2662 24.1778C92.9326 23.4665 93.5885 22.7384 94.2339 22.0047C94.8793 21.271 95.4933 20.5598 96.0652 19.8821C96.6372 19.2044 97.141 18.6107 97.5555 18.0955H101.318C100.793 18.7059 100.216 19.3836 99.5915 20.1229C98.967 20.8622 98.3269 21.6071 97.6552 22.3632C96.9835 23.1193 96.3119 23.8642 95.635 24.6034L93.7092 26.7261Z" fill="#F28705"/>
</svg>
