<svg width="37" height="32" viewBox="0 0 37 32" fill="none" xmlns="http://www.w3.org/2000/svg">
<rect width="37" height="32" rx="16" fill="#F5F6F7"/>
<path d="M17.496 24.24C17.032 24.24 16.512 24.208 15.936 24.144C15.36 24.08 14.8 23.992 14.256 23.88C13.712 23.768 13.256 23.64 12.888 23.496V20.664C13.544 20.936 14.224 21.136 14.928 21.264C15.648 21.392 16.344 21.456 17.016 21.456C18.152 21.456 18.992 21.304 19.536 21C20.096 20.68 20.376 20.104 20.376 19.272C20.376 18.584 20.128 18.096 19.632 17.808C19.152 17.52 18.456 17.376 17.544 17.376H15.12L15.36 15H17.376C18.304 15 18.984 14.848 19.416 14.544C19.848 14.224 20.064 13.728 20.064 13.056C20.064 12.384 19.816 11.888 19.32 11.568C18.84 11.232 18.064 11.064 16.992 11.064C16.304 11.064 15.616 11.136 14.928 11.28C14.256 11.424 13.664 11.608 13.152 11.832V9.072C13.664 8.848 14.32 8.664 15.12 8.52C15.936 8.376 16.744 8.304 17.544 8.304C19.464 8.304 20.912 8.704 21.888 9.504C22.864 10.304 23.352 11.336 23.352 12.6C23.352 13.352 23.176 14.064 22.824 14.736C22.488 15.392 21.96 15.872 21.24 16.176C22.072 16.432 22.68 16.864 23.064 17.472C23.464 18.064 23.664 18.776 23.664 19.608C23.664 20.664 23.4 21.536 22.872 22.224C22.36 22.912 21.64 23.424 20.712 23.76C19.8 24.08 18.728 24.24 17.496 24.24Z" fill="#061C3D"/>
</svg>
