<svg width="37" height="32" viewBox="0 0 37 32" fill="none" xmlns="http://www.w3.org/2000/svg">
<rect width="37" height="32" rx="16" fill="#F5F6F7"/>
<path d="M12.888 24V22.44C13.32 21.512 13.888 20.68 14.592 19.944C15.296 19.192 16.064 18.448 16.896 17.712C17.52 17.152 18.032 16.688 18.432 16.32C18.832 15.952 19.144 15.624 19.368 15.336C19.592 15.048 19.752 14.752 19.848 14.448C19.944 14.144 19.992 13.768 19.992 13.32C19.992 11.832 19.048 11.088 17.16 11.088C16.52 11.088 15.88 11.16 15.24 11.304C14.616 11.432 14.016 11.608 13.44 11.832V8.976C14.048 8.768 14.752 8.608 15.552 8.496C16.368 8.368 17.144 8.304 17.88 8.304C19.672 8.304 21.016 8.752 21.912 9.648C22.824 10.528 23.28 11.728 23.28 13.248C23.28 14.304 23.016 15.208 22.488 15.96C21.976 16.696 21.304 17.424 20.472 18.144C19.816 18.72 19.192 19.28 18.6 19.824C18.008 20.352 17.512 20.912 17.112 21.504H23.424V24H12.888Z" fill="#061C3D"/>
</svg>
